<?xml version="1.0" encoding="utf-8"?>
<!-- Generator: Adobe Illustrator 26.1.0, SVG Export Plug-In . SVG Version: 6.00 Build 0)  -->
<svg version="1.1" id="Layer_1" xmlns="http://www.w3.org/2000/svg" xmlns:xlink="http://www.w3.org/1999/xlink" x="0px" y="0px"
	 viewBox="0 0 189.1 38.1" style="enable-background:new 0 0 189.1 38.1;" xml:space="preserve">
<style type="text/css">
	.st0{enable-background:new    ;}
	.st1{fill:#2A4B9B;}
</style>
<g class="st0">
	<path class="st1" d="M34.3,36.4l0-21L24,32.7h-3.6L10.1,15.8v20.5H2.5v-35h6.7l13.1,21.8L35.2,1.4h6.6l0.1,35H34.3z"/>
	<path class="st1" d="M75.8,28.9H59.5l-3.1,7.5h-8.3l15.6-35h8l15.6,35h-8.5L75.8,28.9z M73.2,22.7L67.7,9.3l-5.6,13.4H73.2z"/>
</g>
<g class="st0">
	<path class="st1" d="M123.1,20.6c-1.8,2.3-4.2,4-7.4,5l6.1,10.8h-8.5l-5.5-9.8h-6.9L99,36.4h-8.1l7-35h14.2c4.3,0,7.7,1,10.1,2.8
		c2.4,1.9,3.6,4.6,3.6,8C125.8,15.5,124.9,18.3,123.1,20.6z M115.4,18.3c1.5-1.2,2.2-3,2.2-5.3c0-1.7-0.6-2.9-1.7-3.8
		C114.8,8.4,113.1,8,111,8h-6.4l-2.5,12.2h6.9C111.8,20.1,113.9,19.5,115.4,18.3z"/>
	<path class="st1" d="M137.1,1.4h8.1l-7,35h-8.1L137.1,1.4z"/>
</g>
<g class="st0">
	<path class="st1" d="M174.7,28.9h-16.2l-3.1,7.5h-8.3l15.6-35h8l15.6,35h-8.5L174.7,28.9z M172.2,22.7l-5.5-13.4l-5.6,13.4H172.2z"
		/>
</g>
</svg>
